<svg width="16" height="16" viewBox="0 0 16 16" fill="none" xmlns="http://www.w3.org/2000/svg">
<path d="M5.69277 14.9875C5.92029 14.8896 6.07965 14.6634 6.07965 14.4V12.672C6.07965 12.609 6.08477 12.5434 6.09277 12.4768C6.08829 12.4781 6.08413 12.4791 6.07965 12.48C6.07965 12.48 5.11965 12.48 4.92765 12.48C4.44765 12.48 4.03165 12.288 3.83965 11.904C3.61565 11.488 3.51965 10.784 2.94365 10.4C2.84765 10.336 2.91165 10.24 3.10365 10.24C3.29565 10.272 3.71165 10.528 3.96765 10.88C4.25565 11.232 4.54365 11.52 5.05565 11.52C5.85149 11.52 6.27805 11.48 6.53469 11.3424C6.83357 10.8979 7.24733 10.56 7.67965 10.56V10.552C5.86589 10.4938 4.70717 9.89089 4.16765 8.96001C2.99485 8.97345 1.97373 9.08961 1.39101 9.18625C1.37245 9.08161 1.35645 8.97633 1.34269 8.87041C1.91773 8.77569 2.89245 8.66337 4.01309 8.64193C3.97725 8.55361 3.94621 8.46305 3.91997 8.37025C2.79645 8.31329 1.82685 8.35777 1.30013 8.40129C1.29373 8.29505 1.28509 8.18913 1.28381 8.08161C1.81149 8.03841 2.75485 7.99521 3.84957 8.04609C3.82429 7.88609 3.80797 7.72257 3.80797 7.55233C3.80797 7.00833 3.99997 6.43233 4.35197 5.95233C4.19197 5.40833 3.96797 4.25633 4.41597 3.84033C5.27997 3.84033 5.88797 4.25633 6.17597 4.51233C6.71965 4.28801 7.32765 4.16001 7.99965 4.16001C8.67165 4.16001 9.27965 4.28801 9.79165 4.51201C10.0796 4.25601 10.6876 3.84001 11.5516 3.84001C12.0316 4.28801 11.7756 5.44001 11.6156 5.95201C11.9676 6.43201 12.1596 6.97601 12.1276 7.55201C12.1276 7.70689 12.1132 7.85633 12.0924 8.00289C13.2121 7.94785 14.1811 7.99201 14.7177 8.03553C14.7171 8.14337 14.7072 8.24865 14.7014 8.35521C14.1667 8.31105 13.1734 8.26561 12.0265 8.32673C11.998 8.43425 11.9635 8.53889 11.9225 8.64033C13.0572 8.65505 14.0553 8.76481 14.6579 8.86081C14.6441 8.96705 14.6281 9.07233 14.6096 9.17665C13.9977 9.07873 12.9548 8.96417 11.7683 8.95841C11.2355 9.87937 10.0979 10.48 8.31965 10.5501V10.56C9.15165 10.56 9.91965 11.808 9.91965 12.672V14.4C9.91965 14.6634 10.079 14.8896 10.3065 14.9875C13.238 14.0173 15.3596 11.2525 15.3596 8.00001C15.3596 3.94177 12.0582 0.640015 7.99965 0.640015C3.94109 0.640015 0.639648 3.94177 0.639648 8.00001C0.639648 11.2525 2.76125 14.0173 5.69277 14.9875Z" fill="white"/>
</svg>
