<svg width="16" height="16" viewBox="0 0 16 16" fill="none" xmlns="http://www.w3.org/2000/svg">
<path d="M14.7641 2.09662C14.5241 1.8931 14.1471 1.86398 13.7573 2.02046H13.7567C13.3468 2.18494 2.15318 6.98622 1.6975 7.18238C1.61462 7.21118 0.89078 7.48126 0.96534 8.08286C1.0319 8.62526 1.61366 8.8499 1.6847 8.87582L4.53046 9.85022C4.71926 10.4787 5.41526 12.7974 5.56918 13.2928C5.66518 13.6016 5.82166 14.0073 6.0959 14.0909C6.33654 14.1837 6.5759 14.0989 6.73078 13.9773L8.47062 12.3635L11.2793 14.5539L11.3461 14.5939C11.5369 14.6784 11.7196 14.7206 11.894 14.7206C12.0287 14.7206 12.158 14.6953 12.2815 14.6448C12.7023 14.472 12.8706 14.071 12.8882 14.0256L14.9861 3.12094C15.1141 2.53854 14.9362 2.24222 14.7641 2.09662ZM7.04022 10.24L6.08022 12.8L5.12022 9.59998L12.4802 4.15998L7.04022 10.24Z" fill="white"/>
</svg>
