<svg width="16" height="16" viewBox="0 0 16 16" fill="none" xmlns="http://www.w3.org/2000/svg">
<g clip-path="url(#clip0_2573_789)">
<path d="M16.0202 3.33998C15.4289 3.60248 14.7952 3.77873 14.1289 3.85873C14.8089 3.45123 15.3314 2.80623 15.5764 2.03874C14.9414 2.41499 14.2352 2.68874 13.4864 2.83623C12.8864 2.19624 12.0314 1.79749 11.0852 1.79749C9.2677 1.79749 7.79395 3.26998 7.79395 5.08748C7.79395 5.34498 7.82395 5.59623 7.8802 5.83748C5.1452 5.69998 2.72145 4.38998 1.0977 2.39874C0.813945 2.88623 0.652696 3.45123 0.652696 4.05373C0.652696 5.19498 1.2327 6.20248 2.11645 6.79373C1.57645 6.77623 1.06895 6.62748 0.625195 6.38123C0.625195 6.39498 0.625195 6.40873 0.625195 6.42248C0.625195 8.01748 1.7602 9.34623 3.26395 9.64998C2.98895 9.72498 2.6977 9.76498 2.3977 9.76498C2.1852 9.76498 1.97895 9.74498 1.7777 9.70498C2.1977 11.0112 3.4127 11.965 4.85145 11.9912C3.72645 12.8737 2.3077 13.3987 0.765195 13.3987C0.498945 13.3987 0.237696 13.3837 -0.0185547 13.3525C1.43645 14.2875 3.16645 14.8312 5.0252 14.8312C11.0777 14.8312 14.3877 9.81748 14.3877 5.46998C14.3877 5.32748 14.3839 5.18373 14.3789 5.04373C15.0214 4.57998 15.5789 3.99998 16.0202 3.33998Z" fill="white"/>
</g>
<defs>
<clipPath id="clip0_2573_789">
<rect width="16" height="16" fill="white"/>
</clipPath>
</defs>
</svg>
