<svg width="44" height="44" viewBox="0 0 44 44" fill="none" xmlns="http://www.w3.org/2000/svg">
<rect width="44" height="44" rx="22" fill="white" fill-opacity="0.1"/>
<path fill-rule="evenodd" clip-rule="evenodd" d="M11 22C11 21.7165 11.1203 21.4464 11.331 21.2567L21.331 12.2567C21.6246 11.9925 22.0461 11.9259 22.4068 12.0865C22.7676 12.2472 23 12.6051 23 13V17L32 17C32.5523 17 33 17.4477 33 18V26C33 26.5523 32.5523 27 32 27L23 27V31C23 31.3949 22.7676 31.7529 22.4068 31.9135C22.0461 32.0742 21.6246 32.0075 21.331 31.7433L11.331 22.7433C11.1203 22.5537 11 22.2835 11 22ZM21 28.7547V26C21 25.4477 21.4477 25 22 25L31 25V19L22 19C21.4477 19 21 18.5523 21 18V15.2454L13.4948 22L21 28.7547Z" fill="white"/>
</svg>
