<svg width="44" height="44" viewBox="0 0 44 44" fill="none" xmlns="http://www.w3.org/2000/svg">
<rect width="44" height="44" rx="22" fill="white" fill-opacity="0.1"/>
<path fill-rule="evenodd" clip-rule="evenodd" d="M33 22C33 22.2835 32.8797 22.5537 32.669 22.7433L22.669 31.7433C22.3754 32.0075 21.9539 32.0742 21.5932 31.9135C21.2324 31.7529 21 31.3949 21 31V27H12C11.4477 27 11 26.5523 11 26L11 18C11 17.4477 11.4477 17 12 17H21V13C21 12.6051 21.2324 12.2472 21.5932 12.0865C21.9539 11.9259 22.3754 11.9925 22.669 12.2567L32.669 21.2567C32.8797 21.4464 33 21.7165 33 22ZM23 15.2454V18C23 18.5523 22.5523 19 22 19H13V25H22C22.5523 25 23 25.4477 23 26V28.7547L30.5052 22L23 15.2454Z" fill="white"/>
</svg>
