<svg width="48" height="48" viewBox="0 0 48 48" fill="none" xmlns="http://www.w3.org/2000/svg">
<path d="M11.4142 8.58579C10.6332 7.80474 9.36683 7.80474 8.58579 8.58579C7.80474 9.36683 7.80474 10.6332 8.58579 11.4142L21.1717 24.0002L8.58579 36.5861C7.80474 37.3671 7.80474 38.6335 8.58579 39.4145C9.36684 40.1956 10.6332 40.1956 11.4142 39.4145L24.0002 26.8286L36.5858 39.4142C37.3668 40.1953 38.6332 40.1953 39.4142 39.4142C40.1953 38.6332 40.1953 37.3668 39.4142 36.5858L26.8286 24.0002L39.4142 11.4145C40.1953 10.6335 40.1953 9.36714 39.4142 8.58609C38.6332 7.80504 37.3668 7.80504 36.5858 8.58609L24.0002 21.1717L11.4142 8.58579Z" fill="currentColor"/>
</svg>
