<svg id="svg" xmlns="http://www.w3.org/2000/svg" xmlns:xlink="http://www.w3.org/1999/xlink" width="400" height="342.85714285714283" viewBox="0, 0, 400,342.85714285714283" version="1.1"><g id="svgg"><path id="path0" d="M0.000 171.527 L 0.000 343.053 200.000 343.053 L 400.000 343.053 400.000 171.527 L 400.000 0.000 200.000 0.000 L 0.000 0.000 0.000 171.527 M204.456 6.023 C 208.832 6.853,211.556 7.952,249.057 24.010 C 252.925 25.667,260.180 28.756,265.180 30.876 C 270.180 32.996,279.597 37.008,286.106 39.790 C 292.616 42.573,302.573 46.818,308.233 49.222 C 325.041 56.363,362.230 72.212,369.983 75.539 C 380.710 80.142,383.369 81.821,386.639 86.057 C 396.020 98.208,392.563 114.662,379.007 122.380 C 375.587 124.328,210.771 194.968,207.547 195.868 C 197.897 198.563,198.383 198.714,149.859 177.928 C 141.305 174.264,129.674 169.300,124.014 166.898 C 118.353 164.495,102.762 157.853,89.365 152.138 C 75.969 146.422,59.914 139.587,53.688 136.950 C 23.279 124.067,22.442 123.689,19.039 121.269 C 3.835 110.459,5.589 88.028,22.298 79.591 C 25.492 77.978,187.988 8.389,190.897 7.388 C 196.238 5.550,199.978 5.174,204.456 6.023 M38.907 149.564 C 41.380 150.196,53.823 155.471,159.691 200.769 C 197.893 217.114,198.874 217.488,201.999 216.895 C 203.172 216.672,221.451 209.036,248.027 197.666 C 330.370 162.437,357.973 150.674,359.520 150.156 C 380.233 143.214,398.915 164.420,389.377 184.048 C 385.814 191.380,383.067 193.363,367.047 200.173 C 361.869 202.374,354.082 205.689,349.743 207.540 C 310.400 224.324,294.865 230.944,292.967 231.732 C 291.741 232.241,279.777 237.335,266.381 243.051 C 200.857 271.009,206.590 268.841,199.026 268.527 C 193.196 268.286,196.798 269.745,106.346 230.987 C 16.628 192.543,19.655 193.914,15.577 189.872 C -1.675 172.772,15.258 143.515,38.907 149.564 M375.561 220.071 C 393.625 224.330,400.197 247.472,387.070 260.599 C 384.028 263.641,382.709 264.233,298.628 300.273 C 253.533 319.602,215.557 335.912,214.237 336.518 C 201.135 342.525,198.749 342.465,183.533 335.747 C 181.175 334.706,174.614 331.891,168.954 329.491 C 163.293 327.092,154.185 323.207,148.714 320.858 C 143.242 318.509,134.365 314.729,128.988 312.457 C 123.611 310.186,106.630 302.959,91.252 296.398 C 75.875 289.837,58.662 282.503,53.002 280.100 C 20.486 266.293,19.002 265.576,15.244 261.832 C 1.003 247.650,9.179 223.662,29.188 220.922 C 34.568 220.186,38.620 221.098,48.430 225.254 C 52.265 226.878,58.877 229.669,63.122 231.454 C 67.367 233.240,77.015 237.331,84.563 240.545 C 92.110 243.759,100.755 247.435,103.774 248.714 C 106.792 249.992,115.978 253.893,124.185 257.382 C 202.222 290.554,197.875 288.801,200.985 288.335 C 203.456 287.964,201.765 288.662,252.144 267.241 C 260.918 263.511,277.822 256.334,289.708 251.292 C 332.214 233.264,347.783 226.649,354.387 223.812 C 364.329 219.541,369.464 218.633,375.561 220.071 " stroke="none" fill="none" fill-rule="evenodd"></path><path id="path1" d="M196.043 6.005 C 194.716 6.248,192.400 6.871,190.897 7.388 C 187.988 8.389,25.492 77.978,22.298 79.591 C 5.589 88.028,3.835 110.459,19.039 121.269 C 22.442 123.689,23.279 124.067,53.688 136.950 C 59.914 139.587,75.969 146.422,89.365 152.138 C 102.762 157.853,118.353 164.495,124.014 166.898 C 129.674 169.300,141.305 174.264,149.859 177.928 C 198.383 198.714,197.897 198.563,207.547 195.868 C 210.771 194.968,375.587 124.328,379.007 122.380 C 392.563 114.662,396.020 98.208,386.639 86.057 C 383.369 81.821,380.710 80.142,369.983 75.539 C 362.230 72.212,325.041 56.363,308.233 49.222 C 302.573 46.818,292.616 42.573,286.106 39.790 C 279.597 37.008,270.180 32.996,265.180 30.876 C 260.180 28.756,252.925 25.667,249.057 24.010 C 202.937 4.261,203.857 4.573,196.043 6.005 M26.932 149.439 C 5.911 154.521,2.006 183.529,20.926 194.056 C 24.202 195.879,188.200 266.167,192.110 267.424 C 196.026 268.683,201.790 268.968,205.706 268.097 C 209.948 267.153,208.280 267.842,266.381 243.051 C 279.777 237.335,291.741 232.241,292.967 231.732 C 294.865 230.944,310.400 224.324,349.743 207.540 C 354.082 205.689,361.869 202.374,367.047 200.173 C 383.067 193.363,385.814 191.380,389.377 184.048 C 398.915 164.420,380.233 143.214,359.520 150.156 C 357.973 150.674,330.370 162.437,248.027 197.666 C 221.451 209.036,203.172 216.672,201.999 216.895 C 198.874 217.488,197.893 217.114,159.691 200.769 C 53.823 155.471,41.380 150.196,38.907 149.564 C 35.715 148.747,30.038 148.688,26.932 149.439 M363.649 220.262 C 362.241 220.631,358.073 222.228,354.387 223.812 C 347.783 226.649,332.214 233.264,289.708 251.292 C 277.822 256.334,260.918 263.511,252.144 267.241 C 201.765 288.662,203.456 287.964,200.985 288.335 C 197.875 288.801,202.222 290.554,124.185 257.382 C 115.978 253.893,106.792 249.992,103.774 248.714 C 100.755 247.435,92.110 243.759,84.563 240.545 C 77.015 237.331,67.367 233.240,63.122 231.454 C 58.877 229.669,52.265 226.878,48.430 225.254 C 38.620 221.098,34.568 220.186,29.188 220.922 C 9.179 223.662,1.003 247.650,15.244 261.832 C 19.002 265.576,20.486 266.293,53.002 280.100 C 58.662 282.503,75.875 289.837,91.252 296.398 C 106.630 302.959,123.611 310.186,128.988 312.457 C 134.365 314.729,143.242 318.509,148.714 320.858 C 154.185 323.207,163.293 327.092,168.954 329.491 C 174.614 331.891,181.175 334.706,183.533 335.747 C 198.749 342.465,201.135 342.525,214.237 336.518 C 215.557 335.912,253.533 319.602,298.628 300.273 C 382.709 264.233,384.028 263.641,387.070 260.599 C 404.276 243.394,387.256 214.082,363.649 220.262 " stroke="none" fill="#ec3444" fill-rule="evenodd"></path></g></svg>