<svg id="svg" xmlns="http://www.w3.org/2000/svg" xmlns:xlink="http://www.w3.org/1999/xlink" width="400"
    height="156.86274509803923" viewBox="0, 0, 400,156.86274509803923" version="1.1">
    <g id="svgg">
        <path id="path0"
            d="M0.000 78.417 L 0.000 156.833 200.000 156.833 L 400.000 156.833 400.000 78.417 L 400.000 0.000 200.000 0.000 L 0.000 0.000 0.000 78.417 M397.348 2.768 C 397.979 3.528,397.251 3.601,386.750 3.833 C 364.609 4.322,357.013 6.062,346.002 13.167 C 343.499 14.782,342.667 15.132,342.667 14.567 C 342.667 13.370,350.913 8.582,356.400 6.593 C 363.119 4.157,369.189 3.277,382.333 2.833 C 394.035 2.438,397.064 2.425,397.348 2.768 M339.333 17.661 C 339.333 17.913,338.316 19.009,337.600 19.529 C 336.295 20.475,335.828 19.823,336.997 18.689 C 337.947 17.767,339.333 17.157,339.333 17.661 M333.103 23.073 C 333.245 23.445,333.181 23.518,328.641 28.222 C 323.711 33.329,320.490 36.909,314.519 43.917 C 272.025 93.791,257.143 103.638,227.250 101.663 C 224.679 101.493,216.040 100.729,215.000 100.580 C 213.911 100.424,199.762 99.017,197.583 98.848 C 177.442 97.290,162.018 99.749,149.333 106.538 C 138.485 112.345,129.368 120.214,111.141 139.508 C 104.064 146.999,102.146 148.591,97.317 150.987 C 80.878 159.144,56.884 155.390,26.333 139.879 C 15.908 134.586,3.333 126.912,3.333 125.841 C 3.333 125.203,4.015 125.476,6.568 127.138 C 39.401 148.515,70.903 157.997,90.514 152.406 C 98.524 150.122,101.508 148.009,111.318 137.672 C 129.760 118.241,138.710 110.651,149.833 105.008 C 164.441 97.598,182.238 95.644,207.583 98.668 C 215.310 99.590,224.823 100.433,230.192 100.672 C 257.230 101.875,272.540 91.426,312.498 44.500 C 325.194 29.590,332.634 21.853,333.103 23.073 "
            stroke="none" fill="none" fill-rule="evenodd"></path>
        <path id="path1"
            d="M389.333 2.613 C 370.463 3.076,363.920 3.867,356.400 6.593 C 350.913 8.582,342.667 13.370,342.667 14.567 C 342.667 15.132,343.499 14.782,346.002 13.167 C 357.013 6.062,364.609 4.322,386.750 3.833 C 397.251 3.601,397.979 3.528,397.348 2.768 C 397.123 2.496,395.438 2.463,389.333 2.613 M338.206 17.776 C 336.926 18.407,335.805 20.000,336.642 20.000 C 337.216 20.000,339.333 18.160,339.333 17.661 C 339.333 17.421,338.820 17.473,338.206 17.776 M331.667 23.554 C 330.854 24.193,326.635 28.507,323.651 31.750 C 321.109 34.513,317.061 39.141,312.498 44.500 C 272.540 91.426,257.230 101.875,230.192 100.672 C 224.823 100.433,215.310 99.590,207.583 98.668 C 182.238 95.644,164.441 97.598,149.833 105.008 C 138.710 110.651,129.760 118.241,111.318 137.672 C 101.508 148.009,98.524 150.122,90.514 152.406 C 70.903 157.997,39.401 148.515,6.568 127.138 C 4.015 125.476,3.333 125.203,3.333 125.841 C 3.333 126.912,15.908 134.586,26.333 139.879 C 56.884 155.390,80.878 159.144,97.317 150.987 C 102.146 148.591,104.064 146.999,111.141 139.508 C 129.368 120.214,138.485 112.345,149.333 106.538 C 162.018 99.749,177.442 97.290,197.583 98.848 C 199.762 99.017,213.911 100.424,215.000 100.580 C 216.040 100.729,224.679 101.493,227.250 101.663 C 257.143 103.638,272.025 93.791,314.519 43.917 C 320.490 36.909,323.711 33.329,328.641 28.222 C 333.181 23.518,333.245 23.445,333.103 23.073 C 332.953 22.685,332.638 22.790,331.667 23.554 "
            stroke="none" fill="#eb3b4b" fill-rule="evenodd"></path>
    </g>
</svg>