<svg width="16" height="16" viewBox="0 0 16 16" fill="none" xmlns="http://www.w3.org/2000/svg">
<path d="M9.28009 0.960022C8.60634 0.960022 7.81884 1.48877 7.70009 3.85002C7.80009 3.84752 7.89884 3.84002 8.00009 3.84002C8.11259 3.84002 8.22884 3.84627 8.34009 3.85002C8.41634 2.43127 8.75384 1.60002 9.28009 1.60002C9.50509 1.60002 9.63259 1.72252 9.87009 1.98002C10.1476 2.28127 10.5101 2.67252 11.2201 2.82002C11.2088 2.73627 11.2001 2.64627 11.2001 2.56002C11.2001 2.42502 11.2138 2.29752 11.2401 2.17002C10.8001 2.05002 10.5676 1.79627 10.3401 1.55002C10.0863 1.27502 9.79509 0.960022 9.28009 0.960022ZM13.1201 1.28002C12.4138 1.28002 11.8401 1.85502 11.8401 2.56002C11.8401 3.26502 12.4138 3.84002 13.1201 3.84002C13.8263 3.84002 14.4001 3.26502 14.4001 2.56002C14.4001 1.85502 13.8263 1.28002 13.1201 1.28002ZM8.00009 4.48002C4.11759 4.48002 0.960093 6.45752 0.960093 9.28002C0.960093 12.1025 4.11759 14.4 8.00009 14.4C11.8826 14.4 15.0401 12.1025 15.0401 9.28002C15.0401 6.45752 11.8826 4.48002 8.00009 4.48002ZM2.40009 4.78002C1.93259 4.78002 1.48884 4.97127 1.15009 5.31002C0.598843 5.86127 0.485093 6.65377 0.800093 7.31002C1.28384 6.37377 2.11634 5.57502 3.19009 4.98002C2.94634 4.85627 2.67634 4.78002 2.40009 4.78002ZM13.6001 4.78002C13.3238 4.78002 13.0538 4.85627 12.8101 4.98002C13.8838 5.57502 14.7163 6.37377 15.2001 7.31002C15.5151 6.65377 15.4013 5.86127 14.8501 5.31002C14.5113 4.97127 14.0676 4.78002 13.6001 4.78002ZM5.44009 7.36002C5.97009 7.36002 6.40009 7.79002 6.40009 8.32002C6.40009 8.85002 5.97009 9.28002 5.44009 9.28002C4.91009 9.28002 4.48009 8.85002 4.48009 8.32002C4.48009 7.79002 4.91009 7.36002 5.44009 7.36002ZM10.5601 7.36002C11.0901 7.36002 11.5201 7.79002 11.5201 8.32002C11.5201 8.85002 11.0901 9.28002 10.5601 9.28002C10.0301 9.28002 9.60009 8.85002 9.60009 8.32002C9.60009 7.79002 10.0301 7.36002 10.5601 7.36002ZM5.14009 10.88C5.22009 10.8938 5.29884 10.9388 5.35009 11.01C5.38384 11.0575 6.13384 12.06 8.00009 12.06C9.89134 12.06 10.6426 11.03 10.6501 11.02C10.7513 10.8763 10.9551 10.8375 11.1001 10.94C11.2438 11.0413 11.2713 11.235 11.1701 11.38C11.1326 11.4338 10.2201 12.7 8.00009 12.7C5.77884 12.7 4.86759 11.4338 4.83009 11.38C4.72884 11.235 4.75509 11.0413 4.90009 10.94C4.97259 10.8888 5.06009 10.8663 5.14009 10.88Z" fill="white"/>
</svg>
