<svg width="248" height="144" viewBox="0 0 248 144" fill="none" xmlns="http://www.w3.org/2000/svg">
<mask id="mask0_410_7" style="mask-type:alpha" maskUnits="userSpaceOnUse" x="0" y="0" width="248" height="144">
<path d="M1 97.5647V19.5C1 14.5294 5.02944 10.5 10 10.5H49.9038C52.4608 10.5 54.938 9.60914 56.9095 7.98058L62.8643 3.06134C64.4773 1.72889 66.5041 1 68.5963 1H237.5C242.471 1 246.5 5.02944 246.5 10V133.5C246.5 138.471 242.471 142.5 237.5 142.5H56.8911C54.9118 142.5 52.9877 141.848 51.4166 140.644L4.52552 104.708C2.30313 103.005 1 100.365 1 97.5647Z" fill="url(#paint0_linear_410_7)" fill-opacity="0.6"/>
<path d="M1 97.5647V19.5C1 14.5294 5.02944 10.5 10 10.5H49.9038C52.4608 10.5 54.938 9.60914 56.9095 7.98058L62.8643 3.06134C64.4773 1.72889 66.5041 1 68.5963 1H237.5C242.471 1 246.5 5.02944 246.5 10V133.5C246.5 138.471 242.471 142.5 237.5 142.5H56.8911C54.9118 142.5 52.9877 141.848 51.4166 140.644L4.52552 104.708C2.30313 103.005 1 100.365 1 97.5647Z" stroke="url(#paint1_linear_410_7)" stroke-opacity="0.6" stroke-width="2"/>
<path d="M1 97.5647V19.5C1 14.5294 5.02944 10.5 10 10.5H49.9038C52.4608 10.5 54.938 9.60914 56.9095 7.98058L62.8643 3.06134C64.4773 1.72889 66.5041 1 68.5963 1H237.5C242.471 1 246.5 5.02944 246.5 10V133.5C246.5 138.471 242.471 142.5 237.5 142.5H56.8911C54.9118 142.5 52.9877 141.848 51.4166 140.644L4.52552 104.708C2.30313 103.005 1 100.365 1 97.5647Z" stroke="url(#paint2_linear_410_7)" stroke-width="2"/>
</mask>
<g mask="url(#mask0_410_7)">
<g filter="url(#filter0_b_410_7)">
<path d="M0 97.5647V19.5C0 13.9772 4.47715 9.5 10 9.5H49.9038C52.2284 9.5 54.4804 8.69013 56.2726 7.20962L62.2274 2.29038C64.0196 0.809874 66.2716 0 68.5963 0H237.5C243.023 0 247.5 4.47715 247.5 10V133.5C247.5 139.023 243.023 143.5 237.5 143.5H56.8911C54.6919 143.5 52.554 142.775 50.8084 141.437L3.91724 105.502C1.44792 103.61 0 100.676 0 97.5647Z" fill="url(#paint3_linear_410_7)" fill-opacity="0.6"/>
<path d="M1 97.5647V19.5C1 14.5294 5.02944 10.5 10 10.5H49.9038C52.4608 10.5 54.938 9.60914 56.9095 7.98058L62.8643 3.06134C64.4773 1.72889 66.5041 1 68.5963 1H237.5C242.471 1 246.5 5.02944 246.5 10V133.5C246.5 138.471 242.471 142.5 237.5 142.5H56.8911C54.9118 142.5 52.9877 141.848 51.4166 140.644L4.52552 104.708C2.30313 103.005 1 100.365 1 97.5647Z" stroke="url(#paint4_linear_410_7)" stroke-opacity="0.6" stroke-width="2"/>
<path d="M1 97.5647V19.5C1 14.5294 5.02944 10.5 10 10.5H49.9038C52.4608 10.5 54.938 9.60914 56.9095 7.98058L62.8643 3.06134C64.4773 1.72889 66.5041 1 68.5963 1H237.5C242.471 1 246.5 5.02944 246.5 10V133.5C246.5 138.471 242.471 142.5 237.5 142.5H56.8911C54.9118 142.5 52.9877 141.848 51.4166 140.644L4.52552 104.708C2.30313 103.005 1 100.365 1 97.5647Z" stroke="url(#paint5_linear_410_7)" stroke-width="2"/>
</g>
<g filter="url(#filter1_b_410_7)">
<path d="M1 97.5647V19.5C1 14.5294 5.02944 10.5 10 10.5H49.9038C52.4608 10.5 54.938 9.60914 56.9095 7.98058L62.8643 3.06134C64.4773 1.72889 66.5041 1 68.5963 1H237.5C242.471 1 246.5 5.02944 246.5 10V133.5C246.5 138.471 242.471 142.5 237.5 142.5H56.8911C54.9118 142.5 52.9877 141.848 51.4166 140.644L4.52552 104.708C2.30313 103.005 1 100.365 1 97.5647Z" stroke="url(#paint6_linear_410_7)" stroke-opacity="0.6" stroke-width="2"/>
<path d="M1 97.5647V19.5C1 14.5294 5.02944 10.5 10 10.5H49.9038C52.4608 10.5 54.938 9.60914 56.9095 7.98058L62.8643 3.06134C64.4773 1.72889 66.5041 1 68.5963 1H237.5C242.471 1 246.5 5.02944 246.5 10V133.5C246.5 138.471 242.471 142.5 237.5 142.5H56.8911C54.9118 142.5 52.9877 141.848 51.4166 140.644L4.52552 104.708C2.30313 103.005 1 100.365 1 97.5647Z" stroke="white" stroke-opacity="0.1" stroke-width="2"/>
</g>
</g>
<defs>
<filter id="filter0_b_410_7" x="-140" y="-140" width="527.5" height="423.5" filterUnits="userSpaceOnUse" color-interpolation-filters="sRGB">
<feFlood flood-opacity="0" result="BackgroundImageFix"/>
<feGaussianBlur in="BackgroundImage" stdDeviation="70"/>
<feComposite in2="SourceAlpha" operator="in" result="effect1_backgroundBlur_410_7"/>
<feBlend mode="normal" in="SourceGraphic" in2="effect1_backgroundBlur_410_7" result="shape"/>
</filter>
<filter id="filter1_b_410_7" x="-140" y="-140" width="527.5" height="423.5" filterUnits="userSpaceOnUse" color-interpolation-filters="sRGB">
<feFlood flood-opacity="0" result="BackgroundImageFix"/>
<feGaussianBlur in="BackgroundImage" stdDeviation="70"/>
<feComposite in2="SourceAlpha" operator="in" result="effect1_backgroundBlur_410_7"/>
<feBlend mode="normal" in="SourceGraphic" in2="effect1_backgroundBlur_410_7" result="shape"/>
</filter>
<linearGradient id="paint0_linear_410_7" x1="123.75" y1="0" x2="240.217" y2="149.186" gradientUnits="userSpaceOnUse">
<stop stop-color="white" stop-opacity="0.2"/>
<stop offset="1" stop-color="white" stop-opacity="0"/>
</linearGradient>
<linearGradient id="paint1_linear_410_7" x1="294.961" y1="57.3666" x2="210.61" y2="61.9839" gradientUnits="userSpaceOnUse">
<stop stop-color="white"/>
<stop offset="1" stop-color="#EFEFEF" stop-opacity="0"/>
</linearGradient>
<linearGradient id="paint2_linear_410_7" x1="0" y1="0" x2="69.7938" y2="63.9861" gradientUnits="userSpaceOnUse">
<stop stop-color="white" stop-opacity="0.5"/>
<stop offset="1" stop-color="white" stop-opacity="0"/>
</linearGradient>
<linearGradient id="paint3_linear_410_7" x1="123.75" y1="0" x2="240.217" y2="149.186" gradientUnits="userSpaceOnUse">
<stop stop-color="white" stop-opacity="0.2"/>
<stop offset="1" stop-color="white" stop-opacity="0"/>
</linearGradient>
<linearGradient id="paint4_linear_410_7" x1="294.961" y1="57.3666" x2="210.61" y2="61.9839" gradientUnits="userSpaceOnUse">
<stop stop-color="white"/>
<stop offset="1" stop-color="#EFEFEF" stop-opacity="0"/>
</linearGradient>
<linearGradient id="paint5_linear_410_7" x1="0" y1="0" x2="69.7938" y2="63.9861" gradientUnits="userSpaceOnUse">
<stop stop-color="white" stop-opacity="0.5"/>
<stop offset="1" stop-color="white" stop-opacity="0"/>
</linearGradient>
<linearGradient id="paint6_linear_410_7" x1="294.961" y1="57.3666" x2="210.61" y2="61.9839" gradientUnits="userSpaceOnUse">
<stop stop-color="white"/>
<stop offset="1" stop-color="#EFEFEF" stop-opacity="0"/>
</linearGradient>
</defs>
</svg>
