<svg width="40" height="40" viewBox="0 0 40 40" fill="none" xmlns="http://www.w3.org/2000/svg">
<g opacity="0.8">
<path fill-rule="evenodd" clip-rule="evenodd" d="M29.2167 21.4133C29.704 21.1088 30 20.5747 30 20C30 19.4254 29.704 18.8912 29.2167 18.5867L15.8833 10.2533C15.3696 9.93222 14.722 9.91522 14.1921 10.2089C13.6621 10.5026 13.3333 11.0608 13.3333 11.6667L13.3333 28.3333C13.3333 28.9392 13.6621 29.4974 14.1921 29.7911C14.722 30.0848 15.3695 30.0678 15.8833 29.7467L29.2167 21.4133ZM16.6667 25.3263L16.6667 14.6737L25.1887 20L16.6667 25.3263Z" fill="currentColor"/>
<path fill-rule="evenodd" clip-rule="evenodd" d="M40 20C40 31.0457 31.0457 40 20 40C8.9543 40 0 31.0457 0 20C0 8.9543 8.9543 0 20 0C31.0457 0 40 8.9543 40 20ZM36.6667 20C36.6667 29.2047 29.2047 36.6667 20 36.6667C10.7953 36.6667 3.33333 29.2047 3.33333 20C3.33333 10.7953 10.7953 3.33333 20 3.33333C29.2047 3.33333 36.6667 10.7953 36.6667 20Z" fill="currentColor"/>
</g>
</svg>
